<svg xmlns="http://www.w3.org/2000/svg" version="1.1" xmlns:xlink="http://www.w3.org/1999/xlink" viewBox="0 0 200 200"><rect width="200" height="200" fill="url('#gradient')"></rect><defs><linearGradient id="gradient" gradientTransform="rotate(45 0.5 0.5)"><stop offset="0%" stop-color="#0e5278"></stop><stop offset="100%" stop-color="#2fa98e"></stop></linearGradient></defs><g><g fill="#dee90b" transform="matrix(4.876190476190477,0,0,4.876190476190477,9.9108187498436,136.08615364347185)" stroke="#dee90b" stroke-width="0.2"><path d="M3.50-10.57L5.14-3.92L6.81-10.57L10.27-10.57L6.83 0L3.47 0L0.02-10.57L3.50-10.57ZM16.24 0.20L16.24 0.20Q13.81 0.20 12.30-1.25Q10.80-2.71 10.80-5.03L10.80-5.03L10.80-5.30Q10.80-6.92 11.40-8.16Q12.00-9.40 13.15-10.08Q14.31-10.76 15.89-10.76L15.89-10.76Q18.12-10.76 19.40-9.38Q20.69-8.00 20.69-5.53L20.69-5.53L20.69-4.25L14.15-4.25Q14.33-3.36 14.92-2.85Q15.52-2.34 16.46-2.34L16.46-2.34Q18.03-2.34 18.91-3.44L18.91-3.44L20.41-1.66Q19.79-0.81 18.67-0.31Q17.54 0.20 16.24 0.20ZM15.87-8.22L15.87-8.22Q14.42-8.22 14.15-6.31L14.15-6.31L17.47-6.31L17.47-6.56Q17.49-7.35 17.07-7.79Q16.65-8.22 15.87-8.22ZM25.23-15L25.23-9.43Q26.29-10.76 27.93-10.76L27.93-10.76Q29.68-10.76 30.57-9.73Q31.46-8.69 31.47-6.67L31.47-6.67L31.47 0L28.17 0L28.17-6.59Q28.17-7.43 27.83-7.83Q27.49-8.22 26.67-8.22L26.67-8.22Q25.65-8.22 25.23-7.58L25.23-7.58L25.23 0L21.94 0L21.94-15L25.23-15ZM36.78-10.57L36.78 0L33.48 0L33.48-10.57L36.78-10.57ZM33.28-13.29L33.28-13.29Q33.28-13.99 33.79-14.44Q34.30-14.89 35.11-14.89Q35.92-14.89 36.43-14.44Q36.93-13.99 36.93-13.29Q36.93-12.59 36.43-12.14Q35.92-11.69 35.11-11.69Q34.30-11.69 33.79-12.14Q33.28-12.59 33.28-13.29Z"></path></g></g></svg>